<?xml version="1.0" standalone="no"?>
<!DOCTYPE svg PUBLIC "-//W3C//DTD SVG 20010904//EN"
 "http://www.w3.org/TR/2001/REC-SVG-20010904/DTD/svg10.dtd">
<svg version="1.0" xmlns="http://www.w3.org/2000/svg"
 width="120.000000pt" height="120.000000pt" viewBox="0 0 120.000000 120.000000"
 preserveAspectRatio="xMidYMid meet">
<metadata>
Created by potrace 1.11, written by Peter Selinger 2001-2013
</metadata>
<g transform="translate(0.000000,120.000000) scale(0.100000,-0.100000)"
fill="#000000" stroke="none">
<path d="M126 941 c-7 -81 -1 -504 10 -628 6 -68 18 -82 28 -32 l6 30 35 -26
c143 -109 628 -109 788 0 l37 26 6 -31 c10 -49 22 -35 28 33 10 114 16 591 8
652 -8 59 -8 59 -15 -55 -5 -63 -11 -132 -14 -152 l-6 -38 -59 0 -60 0 7 -31
c6 -27 5 -30 -11 -25 -18 5 -227 26 -268 26 -12 0 -16 5 -12 15 4 12 -6 15
-56 15 -54 0 -60 -2 -43 -13 16 -12 9 -15 -61 -21 -43 -3 -106 -9 -139 -12
l-60 -5 55 25 55 25 -112 1 c-83 0 -113 3 -114 13 0 6 -6 75 -13 152 l-12 140
-8 -84z m515 -301 c10 -6 19 -17 19 -25 0 -13 24 -15 144 -15 115 0 145 -3
149 -14 14 -35 -272 -62 -478 -46 -212 17 -237 28 -67 29 82 1 141 5 138 10
-7 11 47 71 64 71 6 0 20 -5 31 -10z"/>
</g>
</svg>
